<svg width="139" height="143" viewBox="0 0 139 143" fill="none" xmlns="http://www.w3.org/2000/svg">
<g filter="url(#filter0_d_18_19)">
<rect x="6" y="63.6396" width="90" height="90" rx="12" transform="rotate(-45 6 63.6396)" fill="#68AAE7"/>
<rect x="41.799" y="77.8718" width="60" height="36" transform="rotate(-45 41.799 77.8718)" fill="#FDA21A"/>
<path d="M45.1151 36.3719L41.799 77.8718L84.2254 35.4454L45.1151 36.3719Z" fill="#FDA21A"/>
<rect x="31.1924" y="58.78" width="48" height="57" transform="rotate(-45 31.1924 58.78)" fill="white"/>
<rect x="38.9706" y="60.9013" width="40" height="5" transform="rotate(-45 38.9706 60.9013)" fill="#3FCF3C"/>
<rect x="45.3345" y="67.2653" width="39" height="1" transform="rotate(-45 45.3345 67.2653)" fill="#D9D9D9"/>
<rect x="48.163" y="70.0937" width="39" height="1" transform="rotate(-45 48.163 70.0937)" fill="#D9D9D9"/>
<rect x="50.9914" y="72.9221" width="39" height="1" transform="rotate(-45 50.9914 72.9221)" fill="#D9D9D9"/>
<rect x="53.8198" y="75.7505" width="39" height="1" transform="rotate(-45 53.8198 75.7505)" fill="#D9D9D9"/>
<rect x="56.6483" y="78.5789" width="39" height="1" transform="rotate(-45 56.6483 78.5789)" fill="#D9D9D9"/>
<path d="M73.1057 73.4352L78.9652 67.5757L109.681 60.9013L66.5477 104.035L73.1057 73.4352Z" fill="#FFE920"/>
<path d="M79.2854 67.2751L84.2253 35.4454L110.388 60.9013L79.2854 67.2751Z" fill="#FBFF20"/>
<path d="M74.3357 72.2248L41.799 77.8718L67.2548 103.328L74.3357 72.2248Z" fill="#FBFF20"/>
</g>
<defs>
<filter id="filter0_d_18_19" x="0.970581" y="4.97058" width="137.338" height="137.338" filterUnits="userSpaceOnUse" color-interpolation-filters="sRGB">
<feFlood flood-opacity="0" result="BackgroundImageFix"/>
<feColorMatrix in="SourceAlpha" type="matrix" values="0 0 0 0 0 0 0 0 0 0 0 0 0 0 0 0 0 0 127 0" result="hardAlpha"/>
<feOffset dy="10"/>
<feGaussianBlur stdDeviation="5"/>
<feComposite in2="hardAlpha" operator="out"/>
<feColorMatrix type="matrix" values="0 0 0 0 0 0 0 0 0 0 0 0 0 0 0 0 0 0 0.15 0"/>
<feBlend mode="normal" in2="BackgroundImageFix" result="effect1_dropShadow_18_19"/>
<feBlend mode="normal" in="SourceGraphic" in2="effect1_dropShadow_18_19" result="shape"/>
</filter>
</defs>
</svg>
